<?xml version="1.0" encoding="UTF-8" standalone="no"?>
<svg
   xmlns:dc="http://purl.org/dc/elements/1.1/"
   xmlns:cc="http://creativecommons.org/ns#"
   xmlns:rdf="http://www.w3.org/1999/02/22-rdf-syntax-ns#"
   xmlns:svg="http://www.w3.org/2000/svg"
   xmlns="http://www.w3.org/2000/svg"
   xmlns:sodipodi="http://sodipodi.sourceforge.net/DTD/sodipodi-0.dtd"
   xmlns:inkscape="http://www.inkscape.org/namespaces/inkscape"
   width="233"
   height="138"
   viewBox="0 0 233 138"
   version="1.1"
   id="svg920"
   sodipodi:docname="terria.svg"
   inkscape:version="0.92.4 (unknown)">
  <metadata
     id="metadata924">
    <rdf:RDF>
      <cc:Work
         rdf:about="">
        <dc:format>image/svg+xml</dc:format>
        <dc:type
           rdf:resource="http://purl.org/dc/dcmitype/StillImage" />
        <dc:title>terria-brand-onLight@2x</dc:title>
      </cc:Work>
    </rdf:RDF>
  </metadata>
  <sodipodi:namedview
     pagecolor="#ffffff"
     bordercolor="#666666"
     borderopacity="1"
     objecttolerance="10"
     gridtolerance="10"
     guidetolerance="10"
     inkscape:pageopacity="0"
     inkscape:pageshadow="2"
     inkscape:window-width="1865"
     inkscape:window-height="1056"
     id="namedview922"
     showgrid="false"
     fit-margin-top="0"
     fit-margin-left="0"
     fit-margin-right="0"
     fit-margin-bottom="0"
     inkscape:zoom="3.1272798"
     inkscape:cx="139.35715"
     inkscape:cy="61.419848"
     inkscape:window-x="55"
     inkscape:window-y="24"
     inkscape:window-maximized="1"
     inkscape:current-layer="svg920" />
  <!-- Generator: Sketch 51.2 (57519) - http://www.bohemiancoding.com/sketch -->
  <title
     id="title911">terria-brand-onLight@2x</title>
  <desc
     id="desc913">Created with Sketch.</desc>
  <defs
     id="defs915" />
  <g
     id="terria-brand-onLight"
     style="fill:none;fill-rule:evenodd;stroke:none;stroke-width:1"
     transform="translate(-16,-16)">
    <path
       d="m 39,100.14899 h 4.400116 v 10.98867 h 15.992423 v 4.36178 H 43.400116 v 27.09315 c 0,1.78941 0.647933,3.3269 1.946028,4.61318 1.29733,1.28657 2.876952,1.9291 4.738356,1.9291 1.804691,0 3.355701,-0.64253 4.654242,-1.9291 1.296885,-1.28628 1.946283,-2.82377 1.946283,-4.61318 h 4.399861 c 0,1.50964 -0.282737,2.93533 -0.846046,4.27764 -0.56452,1.34181 -1.354108,2.50349 -2.36921,3.48111 -1.015804,0.9791 -2.186963,1.76129 -3.511694,2.34805 -1.326261,0.58751 -2.749763,0.88114 -4.273436,0.88114 -1.522845,0 -2.961066,-0.29363 -4.315174,-0.88114 -1.354107,-0.58676 -2.525267,-1.36895 -3.511248,-2.34805 -0.988212,-0.97762 -1.77729,-2.1393 -2.369656,-3.48111 C 39.296247,145.52792 39,144.10223 39,142.59259 Z M 85.707465,154 c -3.046582,0 -5.923662,-0.57418 -8.631176,-1.72008 -2.707705,-1.14516 -5.063469,-2.71176 -7.065701,-4.69634 -2.002804,-1.98485 -3.582426,-4.30626 -4.738419,-6.96251 -1.15644,-2.6555 -1.734469,-5.49431 -1.734469,-8.51352 0,-3.01947 0.578029,-5.8716 1.734469,-8.55553 1.155993,-2.68461 2.735615,-5.01859 4.738419,-7.00388 2.002232,-1.98484 4.357996,-3.5507 7.065701,-4.69738 2.707514,-1.14561 5.584594,-1.7198 8.631176,-1.7198 3.045945,0 5.908369,0.57419 8.588546,1.7198 2.678265,1.14668 5.020074,2.71254 7.022879,4.69738 2.00153,1.98529 3.58185,4.31927 4.73842,7.00388 1.15593,2.68393 1.73453,5.53606 1.73453,8.55553 v 1.09014 c 0,0.33605 -0.0287,0.70003 -0.0841,1.09034 H 68.107319 c 0.281527,2.18104 0.930989,4.19425 1.946028,6.03994 1.015102,1.84468 2.297776,3.46726 3.849998,4.86459 1.5505,1.39859 3.34251,2.48874 5.373161,3.27091 2.030907,0.78441 4.173901,1.17477 6.430959,1.17477 1.635125,0 3.186135,-0.30696 4.653669,-0.92284 1.466259,-0.61465 2.763016,-1.4812 3.892182,-2.59996 l 3.130697,3.10333 c -1.466897,1.45408 -3.202066,2.61454 -5.203596,3.48062 C 90.177612,153.56597 88.019962,154 85.707465,154 Z m 17.515455,-24.07324 c -0.28293,-2.18099 -0.93099,-4.1942 -1.94609,-6.03988 -1.0151,-1.84519 -2.299113,-3.46607 -3.850123,-4.86459 -1.552285,-1.39739 -3.328874,-2.48748 -5.331041,-3.27145 -2.002805,-0.78264 -4.133055,-1.17422 -6.388201,-1.17422 -2.257058,0 -4.400052,0.39158 -6.430959,1.17422 -2.030651,0.78397 -3.822661,1.87406 -5.373161,3.27145 -1.552222,1.39852 -2.834896,3.0194 -3.849998,4.86459 -1.015039,1.84568 -1.664501,3.85889 -1.946028,6.03988 z m 15.39987,22.98286 h -4.39942 v -20.9701 c 0,-3.01946 0.57733,-5.8716 1.73454,-8.55552 1.15529,-2.68462 2.73497,-5.01859 4.73842,-7.00394 2.00153,-1.98409 4.34334,-3.55071 7.02287,-4.69733 2.67891,-1.14567 5.5426,-1.71979 8.58855,-1.71979 v 4.4456 c -2.42592,0 -4.71038,0.46169 -6.85338,1.3845 -2.1449,0.92313 -4.01962,2.16746 -5.62735,3.73257 -1.60772,1.5661 -2.87708,3.42563 -3.80807,5.57774 -0.93035,2.15338 -1.39616,4.4331 -1.39616,6.83617 z m 26.90755,0 h -4.40006 v -20.9701 c 0,-3.01946 0.57797,-5.8716 1.73454,-8.55552 1.15593,-2.68462 2.73561,-5.01859 4.73905,-7.00394 2.00153,-1.98409 4.3427,-3.55071 7.02288,-4.69733 2.6789,-1.14567 5.5426,-1.71979 8.58855,-1.71979 v 4.4456 c -2.42656,0 -4.71102,0.46169 -6.85402,1.3845 -2.14427,0.92313 -4.01899,2.16746 -5.62671,3.73257 -1.60772,1.5661 -2.87772,3.42563 -3.80807,5.57774 -0.93035,2.15338 -1.39616,4.4331 -1.39616,6.83617 z m 23.6921,-41.93998 h 4.40005 v 41.93998 h -4.40005 z m 0,-20.96964 h 4.40005 v 7.129774 h -4.40005 z m 34.60779,19.8788 c 3.04659,0 5.92367,0.57488 8.63124,1.72005 2.70758,1.14712 5.06277,2.71298 7.06558,4.69782 2.00153,1.9846 3.58121,4.31857 4.73842,7.00319 1.15529,2.68462 1.73453,5.53606 1.73453,8.55553 v 20.97034 h -4.4848 v -7.80119 c -1.97477,2.68463 -4.49883,4.81011 -7.57345,6.37474 -3.07525,1.56487 -6.44491,2.34928 -10.11152,2.34928 -3.04594,0 -5.90964,-0.57467 -8.5879,-1.72007 -2.68018,-1.14516 -5.02199,-2.71176 -7.02352,-4.69708 -2.0028,-1.98409 -3.58313,-4.30549 -4.73842,-6.96175 -1.1572,-2.65549 -1.73453,-5.49436 -1.73453,-8.51427 0,-3.01947 0.57733,-5.87091 1.73453,-8.55553 1.15529,-2.68462 2.73562,-5.01859 4.73842,-7.00319 2.00153,-1.98484 4.34334,-3.5507 7.02352,-4.69782 2.67826,-1.14517 5.54196,-1.72005 8.5879,-1.72005 z m 0,4.44635 c -2.42528,0 -4.71038,0.46119 -6.85401,1.384 -2.14427,0.92288 -4.01899,2.16797 -5.62671,3.73257 -1.60773,1.56661 -2.87645,3.42563 -3.80743,5.57775 -0.93099,2.15338 -1.39681,4.43309 -1.39681,6.83592 0,2.40554 0.46582,4.6699 1.39681,6.79416 0.93098,2.12622 2.1997,3.98473 3.80743,5.57851 1.60772,1.59371 3.48244,2.85188 5.62671,3.77424 2.14363,0.92284 4.42873,1.38401 6.85401,1.38401 2.42529,0 4.72377,-0.46117 6.89671,-1.38401 2.17104,-0.92236 4.04703,-2.18053 5.62735,-3.77424 1.57778,-1.59378 2.83439,-3.45229 3.76538,-5.57851 0.93035,-2.12426 1.39553,-4.38862 1.39553,-6.79416 0,-2.40283 -0.46518,-4.68254 -1.39553,-6.83592 -0.93099,-2.15212 -2.1876,-4.01114 -3.76538,-5.57775 -1.58032,-1.5646 -3.45631,-2.80969 -5.62735,-3.73257 -2.17294,-0.92281 -4.47142,-1.384 -6.89671,-1.384 z"
       id="Combined-Shape"
       inkscape:connector-curvature="0"
       style="fill:#3d3935;fill-rule:nonzero" />
    <path
       d="M 249,35.47797 C 223.42465,38.076031 188.50333,69.627309 139.47604,86.979358 72.734389,110.60049 -16.908769,-13.182161 28.201656,22.511392 118.83601,94.228404 119.68778,43.604367 165.49982,31.708183 189.0445,25.594947 219.61487,28.896556 249,35.47797"
       id="path34"
       transform="matrix(1,0,0,-1,0,106)"
       inkscape:connector-curvature="0"
       style="fill:#8bd9ea;fill-rule:nonzero" />
  </g>
</svg>
